<mxfile host="Electron" agent="Mozilla/5.0 (Macintosh; Intel Mac OS X 10_15_7) AppleWebKit/537.36 (KHTML, like Gecko) draw.io/28.0.6 Chrome/138.0.7204.100 Electron/37.2.3 Safari/537.36" version="28.0.6">
  <diagram name="Page-1" id="LxLdfChvZs0XZIIdHfIZ">
    <mxGraphModel dx="706" dy="604" grid="1" gridSize="10" guides="1" tooltips="1" connect="1" arrows="1" fold="1" page="1" pageScale="1" pageWidth="850" pageHeight="1100" math="1" shadow="0">
      <root>
        <mxCell id="0" />
        <mxCell id="1" parent="0" />
        <mxCell id="IIUSPk9tphEkDU_h_o-7-5" value="" style="endArrow=classic;html=1;rounded=0;strokeWidth=5;fillColor=#f8cecc;strokeColor=light-dark(#ff0000, #ededed);endFill=1;" parent="1" edge="1">
          <mxGeometry width="50" height="50" relative="1" as="geometry">
            <mxPoint x="386" y="319" as="sourcePoint" />
            <mxPoint x="466" y="499" as="targetPoint" />
          </mxGeometry>
        </mxCell>
        <mxCell id="hDPgeThS7KGppLuOswJO-13" value="" style="endArrow=classic;html=1;rounded=0;strokeWidth=5;fillColor=#f8cecc;strokeColor=light-dark(#00ff00, #FF9090);endFill=1;opacity=40;" parent="1" edge="1">
          <mxGeometry width="50" height="50" relative="1" as="geometry">
            <mxPoint x="360" y="260" as="sourcePoint" />
            <mxPoint x="360" y="480" as="targetPoint" />
          </mxGeometry>
        </mxCell>
        <mxCell id="hDPgeThS7KGppLuOswJO-11" value="" style="endArrow=classic;html=1;rounded=0;exitX=0.5;exitY=0.5;exitDx=0;exitDy=0;exitPerimeter=0;strokeWidth=5;fillColor=#f8cecc;strokeColor=light-dark(#ff0000, #FF9090);endFill=1;opacity=50;" parent="1" edge="1">
          <mxGeometry width="50" height="50" relative="1" as="geometry">
            <mxPoint x="360" y="260" as="sourcePoint" />
            <mxPoint x="560" y="260" as="targetPoint" />
          </mxGeometry>
        </mxCell>
        <mxCell id="hDPgeThS7KGppLuOswJO-12" value="" style="endArrow=classic;html=1;rounded=0;strokeWidth=5;fillColor=#f8cecc;strokeColor=light-dark(#0000ff, #FF9090);endFill=1;opacity=40;" parent="1" target="zXEa433hhh4N4dgIIp29-10" edge="1">
          <mxGeometry width="50" height="50" relative="1" as="geometry">
            <mxPoint x="360" y="260" as="sourcePoint" />
            <mxPoint x="240" y="400" as="targetPoint" />
          </mxGeometry>
        </mxCell>
        <mxCell id="zXEa433hhh4N4dgIIp29-9" value="&lt;font style=&quot;color: light-dark(rgb(255, 0, 0), rgb(237, 237, 237)); font-size: 30px;&quot;&gt;&lt;b style=&quot;&quot;&gt;$$\hat{x}_b$$&lt;/b&gt;&lt;/font&gt;" style="text;html=1;align=center;verticalAlign=middle;resizable=0;points=[];autosize=1;strokeColor=none;fillColor=none;strokeWidth=1;textOpacity=50;" parent="1" vertex="1">
          <mxGeometry x="470" y="240" width="220" height="50" as="geometry" />
        </mxCell>
        <mxCell id="zXEa433hhh4N4dgIIp29-10" value="&lt;font style=&quot;color: light-dark(rgb(0, 0, 255), rgb(237, 237, 237)); font-size: 29px;&quot;&gt;&lt;b style=&quot;&quot;&gt;$$\hat{y}_b$$&lt;/b&gt;&lt;/font&gt;" style="text;html=1;align=center;verticalAlign=middle;resizable=0;points=[];autosize=1;strokeColor=none;fillColor=none;strokeWidth=1;textOpacity=50;" parent="1" vertex="1">
          <mxGeometry x="114" y="400" width="210" height="50" as="geometry" />
        </mxCell>
        <mxCell id="kkAFiysbdoXXCnE2lTPr-2" value="" style="endArrow=none;html=1;rounded=0;strokeWidth=5;fillColor=#f8cecc;strokeColor=light-dark(#AACCFF,#FF9090);endFill=0;dashed=1;dashPattern=1 2;" parent="1" edge="1" source="kkAFiysbdoXXCnE2lTPr-20">
          <mxGeometry width="50" height="50" relative="1" as="geometry">
            <mxPoint x="522" y="261" as="sourcePoint" />
            <mxPoint x="440" y="360" as="targetPoint" />
          </mxGeometry>
        </mxCell>
        <mxCell id="kkAFiysbdoXXCnE2lTPr-7" value="" style="endArrow=none;html=1;rounded=0;strokeWidth=5;fillColor=#f8cecc;strokeColor=light-dark(#00ff00, #FF9090);endFill=0;dashed=1;dashPattern=1 1;opacity=50;" parent="1" edge="1">
          <mxGeometry width="50" height="50" relative="1" as="geometry">
            <mxPoint x="519.66" y="260" as="sourcePoint" />
            <mxPoint x="519.66" y="340" as="targetPoint" />
          </mxGeometry>
        </mxCell>
        <mxCell id="kkAFiysbdoXXCnE2lTPr-8" value="" style="endArrow=none;html=1;rounded=0;strokeWidth=5;fillColor=#f8cecc;strokeColor=light-dark(#0000ff, #FF9090);endFill=0;dashed=1;dashPattern=1 2;opacity=40;" parent="1" edge="1">
          <mxGeometry width="50" height="50" relative="1" as="geometry">
            <mxPoint x="521" y="342" as="sourcePoint" />
            <mxPoint x="439" y="441" as="targetPoint" />
          </mxGeometry>
        </mxCell>
        <mxCell id="kkAFiysbdoXXCnE2lTPr-9" value="&lt;font style=&quot;font-size: 30px; color: light-dark(rgb(0, 0, 0), rgb(237, 237, 237));&quot;&gt;&lt;b style=&quot;&quot;&gt;$$\vec{V}$$&lt;/b&gt;&lt;/font&gt;" style="text;html=1;align=center;verticalAlign=middle;resizable=0;points=[];autosize=1;strokeColor=none;fillColor=none;strokeWidth=1;" parent="1" vertex="1">
          <mxGeometry x="320" y="430" width="190" height="50" as="geometry" />
        </mxCell>
        <mxCell id="kkAFiysbdoXXCnE2lTPr-1" value="" style="endArrow=classic;html=1;rounded=0;strokeWidth=5;fillColor=#f8cecc;strokeColor=#000000;endFill=1;" parent="1" edge="1">
          <mxGeometry width="50" height="50" relative="1" as="geometry">
            <mxPoint x="360" y="260" as="sourcePoint" />
            <mxPoint x="440" y="440" as="targetPoint" />
          </mxGeometry>
        </mxCell>
        <mxCell id="kkAFiysbdoXXCnE2lTPr-10" value="" style="endArrow=classic;html=1;rounded=0;strokeWidth=5;fillColor=#f8cecc;strokeColor=#000000;endFill=1;dashed=1;dashPattern=1 1;opacity=50;" parent="1" edge="1">
          <mxGeometry width="50" height="50" relative="1" as="geometry">
            <mxPoint x="361" y="262" as="sourcePoint" />
            <mxPoint x="521" y="342" as="targetPoint" />
          </mxGeometry>
        </mxCell>
        <mxCell id="kkAFiysbdoXXCnE2lTPr-12" value="&lt;font style=&quot;font-size: 30px; color: light-dark(rgb(255, 0, 0), rgb(237, 237, 237));&quot;&gt;&lt;b style=&quot;&quot;&gt;$$u$$&lt;/b&gt;&lt;/font&gt;" style="text;html=1;align=center;verticalAlign=middle;resizable=0;points=[];autosize=1;strokeColor=none;fillColor=none;strokeWidth=1;textOpacity=50;" parent="1" vertex="1">
          <mxGeometry x="395" y="217" width="110" height="50" as="geometry" />
        </mxCell>
        <mxCell id="kkAFiysbdoXXCnE2lTPr-13" value="&lt;font style=&quot;font-size: 30px; color: light-dark(rgb(0, 29, 188), rgb(237, 237, 237));&quot;&gt;&lt;b style=&quot;&quot;&gt;$$v$$&lt;/b&gt;&lt;/font&gt;" style="text;html=1;align=center;verticalAlign=middle;resizable=0;points=[];autosize=1;strokeColor=none;fillColor=none;strokeWidth=1;opacity=40;textOpacity=40;" parent="1" vertex="1">
          <mxGeometry x="440" y="370" width="110" height="50" as="geometry" />
        </mxCell>
        <mxCell id="kkAFiysbdoXXCnE2lTPr-14" value="&lt;font style=&quot;font-size: 30px; color: light-dark(rgb(0, 255, 0), rgb(237, 237, 237));&quot;&gt;&lt;b style=&quot;&quot;&gt;$$w$$&lt;/b&gt;&lt;/font&gt;" style="text;html=1;align=center;verticalAlign=middle;resizable=0;points=[];autosize=1;strokeColor=none;fillColor=none;strokeWidth=1;textOpacity=50;" parent="1" vertex="1">
          <mxGeometry x="480" y="280" width="110" height="50" as="geometry" />
        </mxCell>
        <mxCell id="kkAFiysbdoXXCnE2lTPr-17" value="" style="curved=1;endArrow=classic;html=1;rounded=0;entryX=0.861;entryY=-0.019;entryDx=0;entryDy=0;entryPerimeter=0;strokeColor=light-dark(#ff00ff, #ededed);strokeWidth=4;" parent="1" edge="1">
          <mxGeometry width="50" height="50" relative="1" as="geometry">
            <mxPoint x="460" y="310" as="sourcePoint" />
            <mxPoint x="464.7099999999999" y="259.99999999999994" as="targetPoint" />
            <Array as="points">
              <mxPoint x="470" y="290" />
            </Array>
          </mxGeometry>
        </mxCell>
        <mxCell id="kkAFiysbdoXXCnE2lTPr-18" value="" style="curved=1;endArrow=classic;html=1;rounded=0;strokeColor=light-dark(#00ffff, #ededed);strokeWidth=4;" parent="1" edge="1">
          <mxGeometry width="50" height="50" relative="1" as="geometry">
            <mxPoint x="440" y="300" as="sourcePoint" />
            <mxPoint x="400" y="350" as="targetPoint" />
            <Array as="points">
              <mxPoint x="440" y="330" />
            </Array>
          </mxGeometry>
        </mxCell>
        <mxCell id="IIUSPk9tphEkDU_h_o-7-7" value="" style="endArrow=classic;html=1;rounded=0;strokeWidth=5;fillColor=#f8cecc;strokeColor=light-dark(#00FF00,#EDEDED);endFill=1;" parent="1" edge="1">
          <mxGeometry width="50" height="50" relative="1" as="geometry">
            <mxPoint x="360" y="260" as="sourcePoint" />
            <mxPoint x="160" y="360" as="targetPoint" />
          </mxGeometry>
        </mxCell>
        <mxCell id="IIUSPk9tphEkDU_h_o-7-10" value="" style="endArrow=classic;html=1;rounded=0;strokeWidth=5;fillColor=#f8cecc;strokeColor=light-dark(#0000ff, #ff9090);endFill=1;" parent="1" edge="1">
          <mxGeometry width="50" height="50" relative="1" as="geometry">
            <mxPoint x="360" y="260" as="sourcePoint" />
            <mxPoint x="170" y="240" as="targetPoint" />
          </mxGeometry>
        </mxCell>
        <mxCell id="IIUSPk9tphEkDU_h_o-7-14" value="&lt;font style=&quot;color: light-dark(rgb(255, 0, 0), rgb(237, 237, 237)); font-size: 30px;&quot;&gt;&lt;b style=&quot;&quot;&gt;$$\hat{x}_v$$&lt;/b&gt;&lt;/font&gt;" style="text;html=1;align=center;verticalAlign=middle;resizable=0;points=[];autosize=1;strokeColor=none;fillColor=none;strokeWidth=1;" parent="1" vertex="1">
          <mxGeometry x="380" y="480" width="220" height="50" as="geometry" />
        </mxCell>
        <mxCell id="IIUSPk9tphEkDU_h_o-7-15" value="&lt;font style=&quot;color: light-dark(rgb(0, 0, 255), rgb(237, 237, 237)); font-size: 29px;&quot;&gt;&lt;b style=&quot;&quot;&gt;$$\hat{y}_v$$&lt;/b&gt;&lt;/font&gt;" style="text;html=1;align=center;verticalAlign=middle;resizable=0;points=[];autosize=1;strokeColor=none;fillColor=none;strokeWidth=1;" parent="1" vertex="1">
          <mxGeometry x="50" y="210" width="210" height="50" as="geometry" />
        </mxCell>
        <mxCell id="IIUSPk9tphEkDU_h_o-7-16" value="&lt;font style=&quot;color: light-dark(rgb(0, 255, 0), rgb(237, 237, 237)); font-size: 30px;&quot;&gt;&lt;b style=&quot;&quot;&gt;$$\hat{z}_v$$&lt;/b&gt;&lt;/font&gt;" style="text;html=1;align=center;verticalAlign=middle;resizable=0;points=[];autosize=1;strokeColor=none;fillColor=none;strokeWidth=1;" parent="1" vertex="1">
          <mxGeometry x="40" y="340" width="220" height="50" as="geometry" />
        </mxCell>
        <mxCell id="IIUSPk9tphEkDU_h_o-7-17" value="&lt;font style=&quot;color: light-dark(rgb(0, 255, 0), rgb(237, 237, 237)); font-size: 30px;&quot;&gt;&lt;b style=&quot;&quot;&gt;$$\hat{z}_b$$&lt;/b&gt;&lt;/font&gt;" style="text;html=1;align=center;verticalAlign=middle;resizable=0;points=[];autosize=1;strokeColor=none;fillColor=none;strokeWidth=1;textOpacity=50;" parent="1" vertex="1">
          <mxGeometry x="240" y="470" width="220" height="50" as="geometry" />
        </mxCell>
        <mxCell id="kkAFiysbdoXXCnE2lTPr-20" value="&lt;font style=&quot;font-size: 30px; color: light-dark(rgb(0, 255, 255), rgb(237, 237, 237));&quot;&gt;&lt;b style=&quot;&quot;&gt;$$\beta$$&lt;/b&gt;&lt;/font&gt;" style="text;html=1;align=center;verticalAlign=middle;resizable=0;points=[];autosize=1;strokeColor=none;fillColor=none;strokeWidth=1;" parent="1" vertex="1">
          <mxGeometry x="360" y="310" width="160" height="50" as="geometry" />
        </mxCell>
        <mxCell id="kkAFiysbdoXXCnE2lTPr-19" value="&lt;font style=&quot;font-size: 30px; color: light-dark(rgb(255, 0, 255), rgb(237, 237, 237));&quot;&gt;&lt;b style=&quot;&quot;&gt;$$\alpha$$&lt;/b&gt;&lt;/font&gt;" style="text;html=1;align=center;verticalAlign=middle;resizable=0;points=[];autosize=1;strokeColor=none;fillColor=none;strokeWidth=1;" parent="1" vertex="1">
          <mxGeometry x="394" y="263" width="180" height="50" as="geometry" />
        </mxCell>
      </root>
    </mxGraphModel>
  </diagram>
</mxfile>
